<svg width="64" height="64" viewBox="0 0 64 64" fill="none" xmlns="http://www.w3.org/2000/svg">
<path fill-rule="evenodd" clip-rule="evenodd" d="M32 41.5907C26.6384 41.5907 22.277 37.2887 22.277 32C22.277 26.7113 26.6384 22.4068 32 22.4068C37.3616 22.4068 41.7255 26.7113 41.7255 32C41.7255 37.2887 37.3616 41.5907 32 41.5907ZM56 25.0012L49.085 22.2728L50.1469 14.9963L37.858 8L32.0025 12.5457L26.1445 8L13.8555 14.9963L14.9175 22.2728L8 25.0012V38.9988L14.9199 41.7296L13.858 49.0012L26.1469 56L32.0025 51.4568L37.8555 56L50.1445 49.0012L49.0825 41.7272L56 38.9988V25.0012Z" fill="#05668D"/>
</svg>
