<svg width="64" height="64" viewBox="0 0 64 64" fill="none" xmlns="http://www.w3.org/2000/svg">
<path fill-rule="evenodd" clip-rule="evenodd" d="M25.1422 4.58651C24.2308 5.29341 23.6295 6.61631 23.6295 7.91405V8.86957H21.7092H19.789V13.1981V17.5266H31.8593H43.9297V13.1981V8.86957H42.0475C40.2241 8.86957 40.1689 8.84982 40.2874 8.23896C40.4976 7.15467 39.8562 5.4349 38.9655 4.69608L38.1268 4H32.0124C26.1558 4 25.8664 4.02462 25.1422 4.58651ZM33.863 7.83668C34.667 8.25248 35.4236 9.73662 35.4236 10.8986C35.4236 14.0811 31.5614 15.46 29.4112 13.0449C27.7691 11.2005 28.5542 8.20433 30.8534 7.54044C31.7622 7.27803 33.0222 7.4022 33.863 7.83668ZM9.22741 11.9017C7.97347 12.6107 8.01077 11.8803 8.00172 35.8185C7.99294 58.4369 7.99651 58.5786 8.56162 59.2872L9.13002 60H31.9965H54.8629L55.4313 59.2872C55.9964 58.5789 56 58.4279 56 36.0342C56 20.0912 55.9109 13.3011 55.6955 12.8347C55.2245 11.8154 54.3115 11.5749 50.9121 11.5749H47.7702V16.3092V21.0435H31.8593H15.9484V16.3092V11.5749L12.8622 11.583C11.0585 11.5879 9.5481 11.7202 9.22741 11.9017ZM47.6078 27.9569C48.4516 28.6346 49.1418 29.3066 49.1418 29.4502C49.1418 29.7576 29.9541 52.9662 29.7001 52.9662C29.437 52.9662 15.3995 41.5949 15.4011 41.3831C15.4041 40.9762 17.9888 38.087 18.3498 38.087C18.5625 38.087 21.016 39.9436 23.8021 42.2126C26.5879 44.4815 28.977 46.376 29.1108 46.4223C29.2447 46.4688 33.0351 42.0575 37.5335 36.6199C42.0321 31.1822 45.794 26.7314 45.8933 26.729C45.9926 26.7265 46.7643 27.2792 47.6078 27.9569Z" fill="#05668D"/>
</svg>
